<mxfile host="app.diagrams.net" agent="Mozilla/5.0 (Windows NT 10.0; Win64; x64) AppleWebKit/537.36 (KHTML, like Gecko) Chrome/136.0.0.0 Safari/537.36 Edg/136.0.0.0" version="26.2.14">
  <diagram name="Страница — 1" id="e34TT2j6jwMnoOX2I9wB">
    <mxGraphModel dx="1037" dy="589" grid="1" gridSize="10" guides="1" tooltips="1" connect="1" arrows="1" fold="1" page="1" pageScale="1" pageWidth="827" pageHeight="1169" math="0" shadow="0">
      <root>
        <mxCell id="0" />
        <mxCell id="1" parent="0" />
        <mxCell id="h35rXorFpO-UpSXtV2DH-1" value="Оборудование" style="rounded=0;whiteSpace=wrap;html=1;" vertex="1" parent="1">
          <mxGeometry x="190" y="150" width="120" height="60" as="geometry" />
        </mxCell>
        <mxCell id="h35rXorFpO-UpSXtV2DH-2" value="" style="shape=parallelogram;perimeter=parallelogramPerimeter;whiteSpace=wrap;html=1;fixedSize=1;rotation=25;size=40;" vertex="1" parent="1">
          <mxGeometry x="400" y="150" width="120" height="60" as="geometry" />
        </mxCell>
        <mxCell id="h35rXorFpO-UpSXtV2DH-3" value="" style="endArrow=none;html=1;rounded=0;entryX=0;entryY=1;entryDx=0;entryDy=0;" edge="1" parent="1" target="h35rXorFpO-UpSXtV2DH-2">
          <mxGeometry width="50" height="50" relative="1" as="geometry">
            <mxPoint x="310" y="180" as="sourcePoint" />
            <mxPoint x="360" y="70" as="targetPoint" />
          </mxGeometry>
        </mxCell>
        <mxCell id="h35rXorFpO-UpSXtV2DH-4" value="" style="endArrow=none;html=1;rounded=0;entryX=0;entryY=0.5;entryDx=0;entryDy=0;exitX=1;exitY=0;exitDx=0;exitDy=0;" edge="1" parent="1" source="h35rXorFpO-UpSXtV2DH-2" target="h35rXorFpO-UpSXtV2DH-5">
          <mxGeometry width="50" height="50" relative="1" as="geometry">
            <mxPoint x="530" y="179" as="sourcePoint" />
            <mxPoint x="613" y="181" as="targetPoint" />
          </mxGeometry>
        </mxCell>
        <mxCell id="h35rXorFpO-UpSXtV2DH-5" value="Тип" style="rounded=0;whiteSpace=wrap;html=1;" vertex="1" parent="1">
          <mxGeometry x="620" y="150" width="120" height="60" as="geometry" />
        </mxCell>
        <mxCell id="h35rXorFpO-UpSXtV2DH-6" value="Принадлежит" style="text;html=1;align=center;verticalAlign=middle;whiteSpace=wrap;rounded=0;" vertex="1" parent="1">
          <mxGeometry x="430" y="165" width="60" height="30" as="geometry" />
        </mxCell>
        <mxCell id="h35rXorFpO-UpSXtV2DH-7" value="кабинет" style="ellipse;whiteSpace=wrap;html=1;" vertex="1" parent="1">
          <mxGeometry x="270" y="20" width="70" height="40" as="geometry" />
        </mxCell>
        <mxCell id="h35rXorFpO-UpSXtV2DH-8" value="n" style="text;html=1;align=center;verticalAlign=middle;whiteSpace=wrap;rounded=0;" vertex="1" parent="1">
          <mxGeometry x="320" y="150" width="60" height="30" as="geometry" />
        </mxCell>
        <mxCell id="h35rXorFpO-UpSXtV2DH-9" value="1" style="text;html=1;align=center;verticalAlign=middle;whiteSpace=wrap;rounded=0;" vertex="1" parent="1">
          <mxGeometry x="540" y="150" width="60" height="30" as="geometry" />
        </mxCell>
        <mxCell id="h35rXorFpO-UpSXtV2DH-10" value="" style="endArrow=none;html=1;rounded=0;entryX=0.5;entryY=1;entryDx=0;entryDy=0;exitX=0.833;exitY=-0.05;exitDx=0;exitDy=0;exitPerimeter=0;" edge="1" parent="1" source="h35rXorFpO-UpSXtV2DH-1" target="h35rXorFpO-UpSXtV2DH-7">
          <mxGeometry width="50" height="50" relative="1" as="geometry">
            <mxPoint x="180" y="120" as="sourcePoint" />
            <mxPoint x="230" y="70" as="targetPoint" />
          </mxGeometry>
        </mxCell>
        <mxCell id="h35rXorFpO-UpSXtV2DH-11" value="инвентарный номер" style="ellipse;whiteSpace=wrap;html=1;" vertex="1" parent="1">
          <mxGeometry x="140" y="20" width="110" height="40" as="geometry" />
        </mxCell>
        <mxCell id="h35rXorFpO-UpSXtV2DH-12" value="" style="endArrow=none;html=1;rounded=0;exitX=0.5;exitY=0;exitDx=0;exitDy=0;entryX=0.5;entryY=1;entryDx=0;entryDy=0;" edge="1" parent="1" source="h35rXorFpO-UpSXtV2DH-1" target="h35rXorFpO-UpSXtV2DH-11">
          <mxGeometry width="50" height="50" relative="1" as="geometry">
            <mxPoint x="255" y="150" as="sourcePoint" />
            <mxPoint x="220" y="63" as="targetPoint" />
          </mxGeometry>
        </mxCell>
        <mxCell id="h35rXorFpO-UpSXtV2DH-13" value="статус" style="ellipse;whiteSpace=wrap;html=1;" vertex="1" parent="1">
          <mxGeometry x="70" y="60" width="80" height="30" as="geometry" />
        </mxCell>
        <mxCell id="h35rXorFpO-UpSXtV2DH-14" value="" style="endArrow=none;html=1;rounded=0;exitX=0;exitY=0.25;exitDx=0;exitDy=0;entryX=0.5;entryY=1;entryDx=0;entryDy=0;" edge="1" parent="1" target="h35rXorFpO-UpSXtV2DH-13" source="h35rXorFpO-UpSXtV2DH-1">
          <mxGeometry width="50" height="50" relative="1" as="geometry">
            <mxPoint x="180" y="170" as="sourcePoint" />
            <mxPoint x="150" y="83" as="targetPoint" />
          </mxGeometry>
        </mxCell>
        <mxCell id="h35rXorFpO-UpSXtV2DH-15" value="активность" style="ellipse;whiteSpace=wrap;html=1;" vertex="1" parent="1">
          <mxGeometry x="30" y="135" width="80" height="30" as="geometry" />
        </mxCell>
        <mxCell id="h35rXorFpO-UpSXtV2DH-16" value="" style="endArrow=none;html=1;rounded=0;exitX=0;exitY=0.5;exitDx=0;exitDy=0;entryX=1;entryY=0.5;entryDx=0;entryDy=0;" edge="1" parent="1" target="h35rXorFpO-UpSXtV2DH-15" source="h35rXorFpO-UpSXtV2DH-1">
          <mxGeometry width="50" height="50" relative="1" as="geometry">
            <mxPoint x="140" y="195" as="sourcePoint" />
            <mxPoint x="70" y="150" as="targetPoint" />
          </mxGeometry>
        </mxCell>
        <mxCell id="h35rXorFpO-UpSXtV2DH-17" value="дата покупки" style="ellipse;whiteSpace=wrap;html=1;" vertex="1" parent="1">
          <mxGeometry x="50" y="210" width="80" height="30" as="geometry" />
        </mxCell>
        <mxCell id="h35rXorFpO-UpSXtV2DH-18" value="" style="endArrow=none;html=1;rounded=0;exitX=-0.008;exitY=0.911;exitDx=0;exitDy=0;entryX=1;entryY=0.5;entryDx=0;entryDy=0;exitPerimeter=0;" edge="1" parent="1" target="h35rXorFpO-UpSXtV2DH-17" source="h35rXorFpO-UpSXtV2DH-1">
          <mxGeometry width="50" height="50" relative="1" as="geometry">
            <mxPoint x="230" y="180" as="sourcePoint" />
            <mxPoint x="90" y="225" as="targetPoint" />
          </mxGeometry>
        </mxCell>
        <mxCell id="h35rXorFpO-UpSXtV2DH-19" value="атрибуты" style="ellipse;whiteSpace=wrap;html=1;" vertex="1" parent="1">
          <mxGeometry x="60" y="250" width="80" height="30" as="geometry" />
        </mxCell>
        <mxCell id="h35rXorFpO-UpSXtV2DH-20" value="" style="endArrow=none;html=1;rounded=0;exitX=0.129;exitY=1.013;exitDx=0;exitDy=0;entryX=1;entryY=0.5;entryDx=0;entryDy=0;exitPerimeter=0;" edge="1" parent="1" target="h35rXorFpO-UpSXtV2DH-19" source="h35rXorFpO-UpSXtV2DH-1">
          <mxGeometry width="50" height="50" relative="1" as="geometry">
            <mxPoint x="199" y="215" as="sourcePoint" />
            <mxPoint x="100" y="235" as="targetPoint" />
          </mxGeometry>
        </mxCell>
        <mxCell id="h35rXorFpO-UpSXtV2DH-21" value="дата создания" style="ellipse;whiteSpace=wrap;html=1;" vertex="1" parent="1">
          <mxGeometry x="80" y="290" width="80" height="30" as="geometry" />
        </mxCell>
        <mxCell id="h35rXorFpO-UpSXtV2DH-22" value="" style="endArrow=none;html=1;rounded=0;exitX=0.339;exitY=0.976;exitDx=0;exitDy=0;entryX=1;entryY=0.5;entryDx=0;entryDy=0;exitPerimeter=0;" edge="1" parent="1" target="h35rXorFpO-UpSXtV2DH-21" source="h35rXorFpO-UpSXtV2DH-1">
          <mxGeometry width="50" height="50" relative="1" as="geometry">
            <mxPoint x="209" y="225" as="sourcePoint" />
            <mxPoint x="110" y="245" as="targetPoint" />
          </mxGeometry>
        </mxCell>
        <mxCell id="h35rXorFpO-UpSXtV2DH-23" value="изображение" style="ellipse;whiteSpace=wrap;html=1;" vertex="1" parent="1">
          <mxGeometry x="240" y="290" width="80" height="30" as="geometry" />
        </mxCell>
        <mxCell id="h35rXorFpO-UpSXtV2DH-24" value="" style="endArrow=none;html=1;rounded=0;exitX=0.87;exitY=1.016;exitDx=0;exitDy=0;exitPerimeter=0;entryX=0.533;entryY=0.031;entryDx=0;entryDy=0;entryPerimeter=0;" edge="1" parent="1" target="h35rXorFpO-UpSXtV2DH-23" source="h35rXorFpO-UpSXtV2DH-1">
          <mxGeometry width="50" height="50" relative="1" as="geometry">
            <mxPoint x="329" y="250" as="sourcePoint" />
            <mxPoint x="290" y="270" as="targetPoint" />
          </mxGeometry>
        </mxCell>
        <mxCell id="h35rXorFpO-UpSXtV2DH-27" value="дата обновления" style="ellipse;whiteSpace=wrap;html=1;" vertex="1" parent="1">
          <mxGeometry x="160" y="305" width="80" height="30" as="geometry" />
        </mxCell>
        <mxCell id="h35rXorFpO-UpSXtV2DH-28" value="" style="endArrow=none;html=1;rounded=0;exitX=0.606;exitY=1;exitDx=0;exitDy=0;entryX=0.5;entryY=0;entryDx=0;entryDy=0;exitPerimeter=0;" edge="1" parent="1" source="h35rXorFpO-UpSXtV2DH-1" target="h35rXorFpO-UpSXtV2DH-27">
          <mxGeometry width="50" height="50" relative="1" as="geometry">
            <mxPoint x="241" y="219" as="sourcePoint" />
            <mxPoint x="170" y="315" as="targetPoint" />
          </mxGeometry>
        </mxCell>
        <mxCell id="h35rXorFpO-UpSXtV2DH-29" value="координаты" style="ellipse;whiteSpace=wrap;html=1;" vertex="1" parent="1">
          <mxGeometry x="320" y="275" width="80" height="30" as="geometry" />
        </mxCell>
        <mxCell id="h35rXorFpO-UpSXtV2DH-30" value="" style="endArrow=none;html=1;rounded=0;exitX=1;exitY=1;exitDx=0;exitDy=0;entryX=0.361;entryY=0.016;entryDx=0;entryDy=0;entryPerimeter=0;" edge="1" parent="1" source="h35rXorFpO-UpSXtV2DH-1" target="h35rXorFpO-UpSXtV2DH-29">
          <mxGeometry width="50" height="50" relative="1" as="geometry">
            <mxPoint x="304" y="221" as="sourcePoint" />
            <mxPoint x="293" y="301" as="targetPoint" />
          </mxGeometry>
        </mxCell>
        <mxCell id="h35rXorFpO-UpSXtV2DH-31" value="название" style="ellipse;whiteSpace=wrap;html=1;" vertex="1" parent="1">
          <mxGeometry x="645" y="40" width="70" height="40" as="geometry" />
        </mxCell>
        <mxCell id="h35rXorFpO-UpSXtV2DH-32" value="" style="endArrow=none;html=1;rounded=0;entryX=0.5;entryY=1;entryDx=0;entryDy=0;exitX=0.25;exitY=0;exitDx=0;exitDy=0;" edge="1" parent="1" target="h35rXorFpO-UpSXtV2DH-31">
          <mxGeometry width="50" height="50" relative="1" as="geometry">
            <mxPoint x="655" y="150" as="sourcePoint" />
            <mxPoint x="605" y="70" as="targetPoint" />
          </mxGeometry>
        </mxCell>
        <mxCell id="h35rXorFpO-UpSXtV2DH-33" value="описание" style="ellipse;whiteSpace=wrap;html=1;" vertex="1" parent="1">
          <mxGeometry x="730" y="80" width="70" height="40" as="geometry" />
        </mxCell>
        <mxCell id="h35rXorFpO-UpSXtV2DH-34" value="схема атрибутов" style="ellipse;whiteSpace=wrap;html=1;" vertex="1" parent="1">
          <mxGeometry x="645" y="265" width="70" height="40" as="geometry" />
        </mxCell>
        <mxCell id="h35rXorFpO-UpSXtV2DH-35" value="" style="endArrow=none;html=1;rounded=0;entryX=0.288;entryY=0.962;entryDx=0;entryDy=0;exitX=1;exitY=0;exitDx=0;exitDy=0;entryPerimeter=0;" edge="1" parent="1" source="h35rXorFpO-UpSXtV2DH-5" target="h35rXorFpO-UpSXtV2DH-33">
          <mxGeometry width="50" height="50" relative="1" as="geometry">
            <mxPoint x="665" y="160" as="sourcePoint" />
            <mxPoint x="690" y="90" as="targetPoint" />
          </mxGeometry>
        </mxCell>
        <mxCell id="h35rXorFpO-UpSXtV2DH-36" value="" style="endArrow=none;html=1;rounded=0;exitX=0.5;exitY=1;exitDx=0;exitDy=0;" edge="1" parent="1" source="h35rXorFpO-UpSXtV2DH-5" target="h35rXorFpO-UpSXtV2DH-34">
          <mxGeometry width="50" height="50" relative="1" as="geometry">
            <mxPoint x="690" y="235" as="sourcePoint" />
            <mxPoint x="715" y="165" as="targetPoint" />
          </mxGeometry>
        </mxCell>
      </root>
    </mxGraphModel>
  </diagram>
</mxfile>
